<?xml version="1.0" encoding="UTF-8"?>
<svg id="Capa_1" data-name="Capa 1" xmlns="http://www.w3.org/2000/svg" viewBox="0 0 350.28 244.58">
  <defs>
    <style>
      .cls-1 {
        fill: #4dffae;
        stroke-width: 0px;
      }

      .cls-2 {
        font-size: 91.34px;
      }

      .cls-2, .cls-3 {
        fill: #8804bf;
        font-family: JostRoman-SemiBold, Jost;
        font-variation-settings: 'wght' 600;
        font-weight: 600;
      }

      .cls-4 {
        fill: #600884;
        font-family: MyriadPro-Regular, 'Myriad Pro';
        font-size: 39.15px;
      }

      .cls-5 {
        letter-spacing: -.02em;
      }

      .cls-3 {
        font-size: 104.39px;
      }

      .cls-6 {
        letter-spacing: 0em;
      }

      .cls-7 {
        letter-spacing: -.03em;
      }

      .cls-8 {
        letter-spacing: 0em;
      }

      .cls-9 {
        letter-spacing: -.03em;
      }
    </style>
  </defs>
  <path class="cls-1" d="m149.67,228.91c-11.2,3.57-24.35-.4-34.33,7.56-20.47,16.19-59.35,8.05-52.67-23.46,3.56-13.77,14.49-24.11,17.19-38.35,5.11-18.52,23.85-28.05,41.73-21.38,12.36,6.47,21.07,18.08,35.08,22.24,27.46,11.69,21.22,47.51-7.02,53.39Zm-59.29-31.72c2.69,8.55,12.59,13.6,20.51,16.77,11.08,3.93,8.35,4.8,15.47-4.36,21.19-24.71-1.46-48.82-14.56-28.08-.97,2.06-1.73,2.07-3.55,1-10.88-6.92-21.73,2.95-17.86,14.69v-.02Z"/>
  <path class="cls-1" d="m87.53,123.4c6.91,18.02-6.97,45.7-28.55,33.75-40.94-24.32,9.24-108.67,28.55-33.75Z"/>
  <path class="cls-1" d="m141.93,110.21c8.23,51.78-52.6,43.07-47.66-17.72,4.07-27.84,45.3.56,47.66,17.72Z"/>
  <path class="cls-1" d="m143.74,155.94c-1.4-12.98.27-26.4,9.36-38,18.8-18.51,40.53,28.77,25.67,45.09-10.02,16.2-30.51,11.48-35.03-7.07v-.02Z"/>
  <path class="cls-1" d="m24.27,181.14c-12.41-65.57,65.01-9.24,39.21,19.45-14.79,12.3-35.46-2.14-39.21-19.45Z"/>
  <text class="cls-2" transform="translate(0 77.64)"><tspan class="cls-7" x="0" y="0">P</tspan><tspan x="51.98" y="0">et</tspan></text>
  <text class="cls-3" transform="translate(126.14 98.18)"><tspan x="0" y="0">Ca</tspan><tspan class="cls-5" x="127.05" y="0">r</tspan><tspan class="cls-8" x="166.19" y="0">e</tspan></text>
  <text class="cls-4" transform="translate(195.2 136.93)"><tspan class="cls-9" x="0" y="0">W</tspan><tspan x="31.83" y="0">eb</tspan><tspan class="cls-6" x="73.71" y="0">A</tspan><tspan x="97.56" y="0">pp</tspan></text>
</svg>